<svg width="28" height="28" viewBox="0 0 28 28" fill="none" xmlns="http://www.w3.org/2000/svg">
<path d="M0.666678 14C0.666678 6.6362 6.63622 0.666656 14 0.666656C21.3638 0.666656 27.3333 6.6362 27.3333 14C27.3333 21.3638 21.3638 27.3333 14 27.3333C11.6729 27.3333 9.4818 26.736 7.57529 25.6859L2.38822 27.2645C1.91716 27.408 1.4054 27.28 1.05721 26.9317C0.709025 26.5837 0.581081 26.0717 0.724465 25.6008L2.30489 20.4079C1.26046 18.5054 0.666678 16.3203 0.666678 14ZM8.66665 12.6667C8.66665 13.403 9.26361 14 9.99998 14H18C18.7364 14 19.3333 13.403 19.3333 12.6667C19.3333 11.9303 18.7364 11.3333 18 11.3333H9.99998C9.26361 11.3333 8.66665 11.9303 8.66665 12.6667ZM9.99998 16.6667C9.26361 16.6667 8.66665 17.2636 8.66665 18C8.66665 18.7364 9.26361 19.3333 9.99998 19.3333H15.3333C16.0697 19.3333 16.6667 18.7364 16.6667 18C16.6667 17.2636 16.0697 16.6667 15.3333 16.6667H9.99998Z" fill="#27AE60"/>
</svg>
